<?xml version="1.0" encoding="UTF-8" standalone="no"?>
<!-- Created with Inkscape (http://www.inkscape.org/) -->

<svg
   width="64"
   height="64"
   viewBox="0 0 16.933333 16.933333"
   version="1.1"
   id="svg1"
   sodipodi:docname="Prev64px.svg"
   inkscape:version="1.3.2 (091e20e, 2023-11-25, custom)"
   xmlns:inkscape="http://www.inkscape.org/namespaces/inkscape"
   xmlns:sodipodi="http://sodipodi.sourceforge.net/DTD/sodipodi-0.dtd"
   xmlns="http://www.w3.org/2000/svg"
   xmlns:svg="http://www.w3.org/2000/svg">
  <sodipodi:namedview
     id="namedview1"
     pagecolor="#ffffff"
     bordercolor="#000000"
     borderopacity="0.25"
     inkscape:showpageshadow="2"
     inkscape:pageopacity="0.0"
     inkscape:pagecheckerboard="0"
     inkscape:deskcolor="#d1d1d1"
     inkscape:zoom="12.296875"
     inkscape:cx="31.959339"
     inkscape:cy="32"
     inkscape:window-width="1920"
     inkscape:window-height="1001"
     inkscape:window-x="-9"
     inkscape:window-y="-9"
     inkscape:window-maximized="1"
     inkscape:current-layer="svg1" />
  <defs
     id="defs1" />
  <g
     id="layer1"
     style="fill:#ffffff;fill-opacity:1">
    <g
       id="g10"
       transform="matrix(-4.0848137,0,0,4.0802072,16.91101,-1.5583912)"
       style="fill:#ffffff;fill-opacity:1">
      <path
         style="fill-rule:nonzero;stroke:none;stroke-width:0.00529167;stroke-linecap:round;stroke-opacity:0.517647;fill:#ffffff;fill-opacity:1"
         id="path8"
         d="m -0.72993931,1.6718791 0,-2.61615409 a 0.06567119,0.06567119 150 0 1 0.0985068,-0.0568729 L 1.6342234,0.30692916 a 0.06567119,0.06567119 90 0 1 0,0.11374583 L -0.63143253,1.7287521 a 0.06567119,0.06567119 30 0 1 -0.0985068,-0.056873 z"
         transform="matrix(1.0602417,0,0,1.0592776,0.76844724,1.9193421)" />
      <path
         style="fill-rule:nonzero;stroke:none;stroke-width:0.00529167;stroke-linecap:round;stroke-opacity:0.517647;fill:#ffffff;fill-opacity:1"
         id="path8-5"
         d="m -0.72993931,1.6718791 0,-2.61615409 a 0.06567119,0.06567119 150 0 1 0.0985068,-0.0568729 L 1.6342234,0.30692916 a 0.06567119,0.06567119 90 0 1 0,0.11374583 L -0.63143253,1.7287521 a 0.06567119,0.06567119 30 0 1 -0.0985068,-0.056873 z"
         transform="matrix(1.0602417,0,0,1.0592776,2.3724855,1.9193421)" />
    </g>
  </g>
</svg>
